<svg xmlns="http://www.w3.org/2000/svg" viewBox="0 0 3840 2160"><g transform="
          rotate(18 1920 1080) 
          translate(-960.8065187531815 -540.4536667986647)
          scale(1.5004200618506154)
        "><rect width="3840" height="2160" fill="rgb(255, 181, 255)"></rect><g transform="translate(0, 0)"><path fill="rgb(214, 136, 255)" fill-opacity="1" d="M0,264.707L64,262.556C128,260.405,256,256.103,384,255.436C512,254.769,640,257.737,768,258.071C896,258.405,1024,256.104,1152,227.387C1280,198.67,1408,143.537,1536,138.881C1664,134.225,1792,180.045,1920,166.002C2048,151.959,2176,78.052,2304,73.86C2432,69.669,2560,135.193,2688,151.514C2816,167.835,2944,134.953,3072,104.517C3200,74.081,3328,46.091,3456,60.539C3584,74.987,3712,131.872,3776,160.314L3840,188.756L3840,2160L3776,2160C3712,2160,3584,2160,3456,2160C3328,2160,3200,2160,3072,2160C2944,2160,2816,2160,2688,2160C2560,2160,2432,2160,2304,2160C2176,2160,2048,2160,1920,2160C1792,2160,1664,2160,1536,2160C1408,2160,1280,2160,1152,2160C1024,2160,896,2160,768,2160C640,2160,512,2160,384,2160C256,2160,128,2160,64,2160L0,2160Z"></path></g><g transform="translate(0, 270)"><path fill="rgb(174, 94, 252)" fill-opacity="1" d="M0,79.644L64,79.625C128,79.606,256,79.568,384,105.956C512,132.344,640,185.158,768,213.523C896,241.888,1024,245.804,1152,213.506C1280,181.208,1408,112.697,1536,84.467C1664,56.237,1792,68.289,1920,94.704C2048,121.12,2176,161.899,2304,190.747C2432,219.596,2560,236.513,2688,225.386C2816,214.259,2944,175.089,3072,135.235C3200,95.38,3328,54.842,3456,32.523C3584,10.205,3712,6.106,3776,4.056L3840,2.007L3840,1890L3776,1890C3712,1890,3584,1890,3456,1890C3328,1890,3200,1890,3072,1890C2944,1890,2816,1890,2688,1890C2560,1890,2432,1890,2304,1890C2176,1890,2048,1890,1920,1890C1792,1890,1664,1890,1536,1890C1408,1890,1280,1890,1152,1890C1024,1890,896,1890,768,1890C640,1890,512,1890,384,1890C256,1890,128,1890,64,1890L0,1890Z"></path></g><g transform="translate(0, 540)"><path fill="rgb(137, 58, 245)" fill-opacity="1" d="M0,162.524L64,152.589C128,142.655,256,122.785,384,102.133C512,81.481,640,60.047,768,54.191C896,48.336,1024,58.059,1152,64.956C1280,71.853,1408,75.924,1536,99.792C1664,123.66,1792,167.326,1920,197.063C2048,226.799,2176,242.607,2304,252.089C2432,261.571,2560,264.727,2688,246.468C2816,228.209,2944,188.536,3072,156.971C3200,125.406,3328,101.95,3456,81.477C3584,61.005,3712,43.517,3776,34.772L3840,26.028L3840,1620L3776,1620C3712,1620,3584,1620,3456,1620C3328,1620,3200,1620,3072,1620C2944,1620,2816,1620,2688,1620C2560,1620,2432,1620,2304,1620C2176,1620,2048,1620,1920,1620C1792,1620,1664,1620,1536,1620C1408,1620,1280,1620,1152,1620C1024,1620,896,1620,768,1620C640,1620,512,1620,384,1620C256,1620,128,1620,64,1620L0,1620Z"></path></g><g transform="translate(0, 810)"><path fill="rgb(105, 31, 231)" fill-opacity="1" d="M0,233.524L64,238.708C128,243.892,256,254.26,384,259.811C512,265.363,640,266.098,768,250.711C896,235.324,1024,203.814,1152,184.138C1280,164.461,1408,156.619,1536,140.594C1664,124.569,1792,100.363,1920,119.482C2048,138.602,2176,201.049,2304,227.091C2432,253.132,2560,242.768,2688,239.822C2816,236.876,2944,241.347,3072,236.16C3200,230.973,3328,216.127,3456,179.092C3584,142.057,3712,82.831,3776,53.219L3840,23.606L3840,1350L3776,1350C3712,1350,3584,1350,3456,1350C3328,1350,3200,1350,3072,1350C2944,1350,2816,1350,2688,1350C2560,1350,2432,1350,2304,1350C2176,1350,2048,1350,1920,1350C1792,1350,1664,1350,1536,1350C1408,1350,1280,1350,1152,1350C1024,1350,896,1350,768,1350C640,1350,512,1350,384,1350C256,1350,128,1350,64,1350L0,1350Z"></path></g><g transform="translate(0, 1080)"><path fill="rgb(78, 14, 209)" fill-opacity="1" d="M0,243.835L64,223.809C128,203.782,256,163.73,384,129.672C512,95.615,640,67.551,768,66.973C896,66.395,1024,93.301,1152,130.795C1280,168.289,1408,216.371,1536,219.254C1664,222.138,1792,179.824,1920,154.89C2048,129.955,2176,122.4,2304,102.323C2432,82.245,2560,49.645,2688,32.959C2816,16.273,2944,15.5,3072,30.178C3200,44.856,3328,74.985,3456,115.818C3584,156.651,3712,208.188,3776,233.957L3840,259.725L3840,1080L3776,1080C3712,1080,3584,1080,3456,1080C3328,1080,3200,1080,3072,1080C2944,1080,2816,1080,2688,1080C2560,1080,2432,1080,2304,1080C2176,1080,2048,1080,1920,1080C1792,1080,1664,1080,1536,1080C1408,1080,1280,1080,1152,1080C1024,1080,896,1080,768,1080C640,1080,512,1080,384,1080C256,1080,128,1080,64,1080L0,1080Z"></path></g><g transform="translate(0, 1350)"><path fill="rgb(55, 5, 179)" fill-opacity="1" d="M0,209.965L64,181.119C128,152.273,256,94.582,384,101.681C512,108.779,640,180.667,768,191.897C896,203.126,1024,153.697,1152,142.112C1280,130.528,1408,156.788,1536,158.406C1664,160.024,1792,136.999,1920,139.703C2048,142.408,2176,170.841,2304,184.672C2432,198.504,2560,197.732,2688,184.466C2816,171.2,2944,145.44,3072,138.006C3200,130.573,3328,141.467,3456,146.791C3584,152.116,3712,151.873,3776,151.751L3840,151.629L3840,810L3776,810C3712,810,3584,810,3456,810C3328,810,3200,810,3072,810C2944,810,2816,810,2688,810C2560,810,2432,810,2304,810C2176,810,2048,810,1920,810C1792,810,1664,810,1536,810C1408,810,1280,810,1152,810C1024,810,896,810,768,810C640,810,512,810,384,810C256,810,128,810,64,810L0,810Z"></path></g><g transform="translate(0, 1620)"><path fill="rgb(36, 3, 146)" fill-opacity="1" d="M0,136.463L64,134.555C128,132.647,256,128.83,384,110.669C512,92.509,640,60.004,768,40.594C896,21.184,1024,14.868,1152,23.887C1280,32.905,1408,57.257,1536,72.566C1664,87.875,1792,94.141,1920,95.561C2048,96.981,2176,93.555,2304,101.558C2432,109.562,2560,128.995,2688,142.998C2816,157.001,2944,165.574,3072,178.996C3200,192.417,3328,210.687,3456,207.567C3584,204.447,3712,179.938,3776,167.683L3840,155.428L3840,540L3776,540C3712,540,3584,540,3456,540C3328,540,3200,540,3072,540C2944,540,2816,540,2688,540C2560,540,2432,540,2304,540C2176,540,2048,540,1920,540C1792,540,1664,540,1536,540C1408,540,1280,540,1152,540C1024,540,896,540,768,540C640,540,512,540,384,540C256,540,128,540,64,540L0,540Z"></path></g><g transform="translate(0, 1890)"><path fill="rgb(18, 3, 110)" fill-opacity="1" d="M0,76.894L64,90.636C128,104.377,256,131.861,384,127.495C512,123.129,640,86.915,768,96.743C896,106.572,1024,162.444,1152,173.411C1280,184.378,1408,150.441,1536,158.001C1664,165.562,1792,214.621,1920,235.298C2048,255.974,2176,248.268,2304,226.635C2432,205.002,2560,169.442,2688,167.261C2816,165.079,2944,196.275,3072,193.713C3200,191.15,3328,154.828,3456,139.892C3584,124.957,3712,131.408,3776,134.633L3840,137.858L3840,270L3776,270C3712,270,3584,270,3456,270C3328,270,3200,270,3072,270C2944,270,2816,270,2688,270C2560,270,2432,270,2304,270C2176,270,2048,270,1920,270C1792,270,1664,270,1536,270C1408,270,1280,270,1152,270C1024,270,896,270,768,270C640,270,512,270,384,270C256,270,128,270,64,270L0,270Z"></path></g></g></svg>